<svg enable-background="new 0 0 512 512" height="85" viewBox="0 0 512 512" width="85" xmlns="http://www.w3.org/2000/svg"><path d="m397.886 191.161c-3.545-4.235-9.852-4.797-14.087-1.252-4.235 3.544-4.797 9.851-1.253 14.086 26.684 31.893 41.165 72.339 40.775 113.888-.886 94.681-79.215 172.782-174.608 174.1-48.125.666-93.326-17.479-127.401-51.087-33.708-33.246-52.272-77.526-52.272-124.685 0-59.98 30.361-115.236 81.216-147.809 51.27-32.838 79.187-66.186 93.348-111.507l2.581-8.26 2.58 8.257c9.333 29.869 25.53 55.364 49.516 77.939 4.02 3.786 10.35 3.593 14.136-.428 3.785-4.021 3.594-10.351-.429-14.136-21.713-20.438-35.736-42.471-44.133-69.341l-12.125-38.802c-1.305-4.175-5.171-7.018-9.545-7.018s-8.24 2.843-9.545 7.018l-12.126 38.807c-12.639 40.45-38.072 70.545-85.045 100.63-56.624 36.268-90.429 97.819-90.429 164.65 0 52.553 20.679 101.891 58.228 138.924 37.248 36.736 86.47 56.867 138.888 56.865.941 0 1.891-.006 2.833-.02 51.527-.712 100.087-21.236 136.733-57.792 36.664-36.573 57.12-84.914 57.6-136.118.432-46.301-15.704-91.371-45.436-126.909z"></path><path d="m279.576 280.012v-29.712c0-5.523-4.478-10-10-10h-46.783c-5.522 0-10 4.477-10 10v29.712h-29.711c-5.522 0-10 4.477-10 10v46.783c0 5.523 4.478 10 10 10h29.711v29.711c0 5.523 4.478 10 10 10h46.783c5.522 0 10-4.477 10-10v-29.711h29.712c5.522 0 10-4.477 10-10v-46.783c0-5.523-4.478-10-10-10zm19.712 46.783h-29.712c-5.522 0-10 4.477-10 10v29.711h-26.783v-29.711c0-5.523-4.478-10-10-10h-29.711v-26.783h29.711c5.522 0 10-4.477 10-10v-29.712h26.783v29.712c0 5.523 4.478 10 10 10h29.712z"></path><path d="m369.497 246.666c51.239-.708 92.983-42.352 93.459-93.223.313-33.486-16.989-62.983-43.266-79.911-21.598-13.914-37.772-29.46-45.4-53.873l-6.143-19.659-6.143 19.661c-7.603 24.331-23.627 39.927-45.19 53.738-26.16 16.756-43.48 45.945-43.48 79.151 0 52.43 43.18 94.848 96.163 94.116z" fill="#ffbdbc"></path></svg>