<svg enable-background="new 0 0 512 512" height="80" viewBox="0 0 512 512" width="80" xmlns="http://www.w3.org/2000/svg"><path d="m318.39 278.299h-39.263v-39.262h-46.254v39.262h-39.263v46.255h39.263v39.263h46.254v-39.263h39.263z" fill="#ffbdbc"></path><g fill="#020288"><path d="m256 164.444c-75.533 0-136.983 61.45-136.983 136.982s61.45 136.983 136.983 136.983 136.983-61.45 136.983-136.982-61.45-136.983-136.983-136.983zm0 253.965c-64.504 0-116.983-52.479-116.983-116.982s52.479-116.983 116.983-116.983 116.983 52.479 116.983 116.982-52.479 116.983-116.983 116.983z"></path><path d="m470.541 112.15h-100.492v-50.962c0-20.205-16.429-36.643-36.623-36.643h-154.853c-20.194 0-36.623 16.438-36.623 36.643v50.963h-100.491c-22.86-.001-41.459 18.598-41.459 41.458v292.387c0 22.86 18.599 41.459 41.459 41.459h429.082c22.86 0 41.459-18.599 41.459-41.459v-292.387c0-22.86-18.599-41.459-41.459-41.459zm-34.541 20v36.68h-50.511v-36.68zm-274.049-70.962c0-9.177 7.457-16.643 16.623-16.643h154.854c9.166 0 16.623 7.466 16.623 16.643v50.963h-24.765v-32.806c0-5.522-4.477-10-10-10h-118.57c-5.523 0-10 4.478-10 10v32.806h-24.765zm44.765 50.962v-22.805h98.568v22.806h-98.568zm-80.205 20v36.68h-50.511v-36.68zm365.489 313.846c0 11.833-9.626 21.459-21.459 21.459h-429.082c-11.833 0-21.459-9.626-21.459-21.459v-292.387c0-11.833 9.626-21.459 21.459-21.459h14.541v46.68c0 5.522 4.477 10 10 10h70.511c5.523 0 10-4.478 10-10v-46.68h218.979v46.68c0 5.522 4.477 10 10 10h70.51c5.523 0 10-4.478 10-10v-46.68h14.541c11.833 0 21.459 9.626 21.459 21.459z"></path></g></svg>