<svg enable-background="new 0 0 512 512" height="85" viewBox="0 0 512 512" width="85" xmlns="http://www.w3.org/2000/svg"><path d="m351.524 124.49h-37.907v-37.907h-44.657v37.907h-37.906v44.657h37.906v37.907h44.657v-37.907h37.907z" fill="#a4fcc4"></path><path d="m291.289 279.415c73.114 0 132.597-59.482 132.597-132.597s-59.483-132.596-132.597-132.596-132.598 59.482-132.598 132.596 59.484 132.597 132.598 132.597zm0-245.193c62.086 0 112.597 50.511 112.597 112.597s-50.511 112.597-112.597 112.597c-62.087 0-112.598-50.511-112.598-112.597s50.511-112.597 112.598-112.597z"></path><path d="m502 267.736c-32.668 0-59.245 26.577-59.245 59.245v13.605h-240.266v-19.048c0-23.625-19.221-42.846-42.846-42.846h-90.398v-17.584c0-32.668-26.577-59.245-59.245-59.245-5.522 0-10 4.478-10 10v275.914c0 5.522 4.478 10 10 10h49.245c5.522 0 10-4.478 10-10v-39.327h373.51v39.327c0 5.522 4.478 10 10 10h49.245c5.522 0 10-4.478 10-10v-210.041c0-5.522-4.478-10-10-10zm-342.356 30.957c12.598 0 22.846 10.249 22.846 22.846v19.048h-113.245v-41.894zm-110.399 179.085h-29.245v-254.623c16.812 4.434 29.245 19.77 29.245 37.954zm20-49.327v-67.864h373.51v67.864zm422.755 49.327h-29.245v-150.797c0-18.185 12.434-33.521 29.245-37.954z"></path></svg>